<svg xmlns="http://www.w3.org/2000/svg" viewBox="0 17.350000381469727 55.95000076293945 36.05000305175781" data-asc="1.058" width="55.95000076293945" height="36.05000305175781"><defs/><g fill="#4300e0"><g transform="translate(0, 0)"><path d="M13.70 52.35Q16.20 52.35 18.13 51.00Q20.05 49.65 20.05 46.93Q20.05 44.20 17.98 42.75Q15.90 41.30 12.07 40.23Q8.25 39.15 6.53 38.35Q4.80 37.55 3.25 36.25Q0.15 33.65 0.15 28.20Q0.15 23.75 3.32 20.55Q6.50 17.35 12 17.35Q14.65 17.35 17.53 18.13Q20.40 18.90 21.10 18.90Q21.80 18.90 22.35 17.90L22.90 17.90L23.25 28.00L22.45 28.00Q20.05 23.65 17.43 21.03Q14.80 18.40 11.72 18.40Q8.65 18.40 6.95 19.83Q5.25 21.25 5.25 23.63Q5.25 26.00 7.28 27.28Q9.30 28.55 12.25 29.35Q15.20 30.15 16.13 30.45Q17.05 30.75 18.43 31.28Q19.80 31.80 20.68 32.38Q21.55 32.95 22.53 33.83Q23.50 34.70 24.05 35.75Q25.40 38.15 25.40 41.45Q25.40 46.85 22.03 50.13Q18.65 53.40 13.15 53.40Q10.30 53.40 6.63 52.65Q2.95 51.90 2.55 51.90Q1.85 51.90 1.20 53.40L0.50 53.40L0 41.50L0.85 41.50Q3.05 45.85 6.47 49.10Q9.90 52.35 13.70 52.35ZM28.50 17.90L46.50 17.90L46.50 19.00L41.20 19.00L41.20 51.80L43 51.80Q47.25 51.80 49.78 49.20Q52.30 46.60 54.90 41.20L55.95 41.20L55 52.90L28.50 52.90L28.50 51.80L31.45 51.80L31.45 19.00L28.50 19.00L28.50 17.90Z"/></g></g></svg>